<svg xmlns="http://www.w3.org/2000/svg" xmlns:xlink="http://www.w3.org/1999/xlink" viewBox="320 320 170 170" version="1.0" preserveAspectRatio="xMidYMid meet"><defs><filter x="0%" y="0%" width="100%" height="100%" id="611fb40546"><feColorMatrix values="0 0 0 0 1 0 0 0 0 1 0 0 0 0 1 0 0 0 1 0" color-interpolation-filters="sRGB"/></filter><clipPath id="231e7c1949"><path d="M 330.117188 394.378906 L 355.566406 394.378906 L 355.566406 419.828125 L 330.117188 419.828125 Z M 330.117188 394.378906 " clip-rule="nonzero"/></clipPath><clipPath id="d278bec42b"><path d="M 342.839844 394.378906 C 335.8125 394.378906 330.117188 400.078125 330.117188 407.101562 C 330.117188 414.128906 335.8125 419.828125 342.839844 419.828125 C 349.867188 419.828125 355.566406 414.128906 355.566406 407.101562 C 355.566406 400.078125 349.867188 394.378906 342.839844 394.378906 Z M 342.839844 394.378906 " clip-rule="nonzero"/></clipPath><clipPath id="a260d0d191"><path d="M 0.117188 0.378906 L 25.566406 0.378906 L 25.566406 25.828125 L 0.117188 25.828125 Z M 0.117188 0.378906 " clip-rule="nonzero"/></clipPath><clipPath id="76d116bf3e"><path d="M 12.839844 0.378906 C 5.8125 0.378906 0.117188 6.078125 0.117188 13.101562 C 0.117188 20.128906 5.8125 25.828125 12.839844 25.828125 C 19.867188 25.828125 25.566406 20.128906 25.566406 13.101562 C 25.566406 6.078125 19.867188 0.378906 12.839844 0.378906 Z M 12.839844 0.378906 " clip-rule="nonzero"/></clipPath><clipPath id="7d1f654442"><rect x="0" width="26" y="0" height="26"/></clipPath><mask id="c51e173bba"><g filter="url(#611fb40546)"><rect x="-81" width="972" fill="#000000" y="-80.999999" height="971.999992" fill-opacity="0.77"/></g></mask><clipPath id="4ee218d9ad"><path d="M 0.390625 0.261719 L 9.101562 0.261719 L 9.101562 8.972656 L 0.390625 8.972656 Z M 0.390625 0.261719 " clip-rule="nonzero"/></clipPath><clipPath id="30070948de"><path d="M 4.746094 0.261719 C 2.339844 0.261719 0.390625 2.210938 0.390625 4.617188 C 0.390625 7.023438 2.339844 8.972656 4.746094 8.972656 C 7.152344 8.972656 9.101562 7.023438 9.101562 4.617188 C 9.101562 2.210938 7.152344 0.261719 4.746094 0.261719 Z M 4.746094 0.261719 " clip-rule="nonzero"/></clipPath><clipPath id="5fdf32f7a0"><path d="M 0.390625 0.261719 L 9.101562 0.261719 L 9.101562 8.972656 L 0.390625 8.972656 Z M 0.390625 0.261719 " clip-rule="nonzero"/></clipPath><clipPath id="7254dbba9a"><path d="M 4.746094 0.261719 C 2.339844 0.261719 0.390625 2.210938 0.390625 4.617188 C 0.390625 7.023438 2.339844 8.972656 4.746094 8.972656 C 7.152344 8.972656 9.101562 7.023438 9.101562 4.617188 C 9.101562 2.210938 7.152344 0.261719 4.746094 0.261719 Z M 4.746094 0.261719 " clip-rule="nonzero"/></clipPath><clipPath id="85bbef8b8c"><rect x="0" width="10" y="0" height="9"/></clipPath><clipPath id="4d74079eb0"><rect x="0" width="10" y="0" height="10"/></clipPath><mask id="ae5523f14c"><g filter="url(#611fb40546)"><rect x="-81" width="972" fill="#000000" y="-80.999999" height="971.999992" fill-opacity="0.75"/></g></mask><clipPath id="b89c85dc70"><path d="M 0.550781 0.640625 L 10.078125 0.640625 L 10.078125 10.167969 L 0.550781 10.167969 Z M 0.550781 0.640625 " clip-rule="nonzero"/></clipPath><clipPath id="62dbebb070"><path d="M 5.3125 0.640625 C 2.683594 0.640625 0.550781 2.773438 0.550781 5.40625 C 0.550781 8.035156 2.683594 10.167969 5.3125 10.167969 C 7.945312 10.167969 10.078125 8.035156 10.078125 5.40625 C 10.078125 2.773438 7.945312 0.640625 5.3125 0.640625 Z M 5.3125 0.640625 " clip-rule="nonzero"/></clipPath><clipPath id="cc6832698c"><path d="M 0.550781 0.640625 L 10.078125 0.640625 L 10.078125 10.167969 L 0.550781 10.167969 Z M 0.550781 0.640625 " clip-rule="nonzero"/></clipPath><clipPath id="ada8ba297f"><path d="M 5.3125 0.640625 C 2.683594 0.640625 0.550781 2.773438 0.550781 5.40625 C 0.550781 8.035156 2.683594 10.167969 5.3125 10.167969 C 7.945312 10.167969 10.078125 8.035156 10.078125 5.40625 C 10.078125 2.773438 7.945312 0.640625 5.3125 0.640625 Z M 5.3125 0.640625 " clip-rule="nonzero"/></clipPath><clipPath id="7ef437bc92"><rect x="0" width="11" y="0" height="11"/></clipPath><clipPath id="65a5ec358d"><rect x="0" width="11" y="0" height="11"/></clipPath><mask id="931e4a655d"><g filter="url(#611fb40546)"><rect x="-81" width="972" fill="#000000" y="-80.999999" height="971.999992" fill-opacity="0.78"/></g></mask><clipPath id="dd53fd2709"><path d="M 0.542969 0.777344 L 10.882812 0.777344 L 10.882812 11.117188 L 0.542969 11.117188 Z M 0.542969 0.777344 " clip-rule="nonzero"/></clipPath><clipPath id="d6e9c9ec7a"><path d="M 5.710938 0.777344 C 2.855469 0.777344 0.542969 3.09375 0.542969 5.949219 C 0.542969 8.804688 2.855469 11.117188 5.710938 11.117188 C 8.566406 11.117188 10.882812 8.804688 10.882812 5.949219 C 10.882812 3.09375 8.566406 0.777344 5.710938 0.777344 Z M 5.710938 0.777344 " clip-rule="nonzero"/></clipPath><clipPath id="2ed4f58085"><path d="M 0.542969 0.777344 L 10.882812 0.777344 L 10.882812 11.117188 L 0.542969 11.117188 Z M 0.542969 0.777344 " clip-rule="nonzero"/></clipPath><clipPath id="8537dbe32e"><path d="M 5.710938 0.777344 C 2.855469 0.777344 0.542969 3.09375 0.542969 5.949219 C 0.542969 8.804688 2.855469 11.117188 5.710938 11.117188 C 8.566406 11.117188 10.882812 8.804688 10.882812 5.949219 C 10.882812 3.09375 8.566406 0.777344 5.710938 0.777344 Z M 5.710938 0.777344 " clip-rule="nonzero"/></clipPath><clipPath id="5db6a85c27"><rect x="0" width="11" y="0" height="12"/></clipPath><clipPath id="b3a731c47d"><rect x="0" width="11" y="0" height="12"/></clipPath><clipPath id="f62ee4ed51"><path d="M 403.882812 333.027344 L 419.214844 333.027344 L 419.214844 348.363281 L 403.882812 348.363281 Z M 403.882812 333.027344 " clip-rule="nonzero"/></clipPath><clipPath id="cc59545b93"><path d="M 411.546875 333.027344 C 407.3125 333.027344 403.882812 336.460938 403.882812 340.695312 C 403.882812 344.929688 407.3125 348.363281 411.546875 348.363281 C 415.78125 348.363281 419.214844 344.929688 419.214844 340.695312 C 419.214844 336.460938 415.78125 333.027344 411.546875 333.027344 Z M 411.546875 333.027344 " clip-rule="nonzero"/></clipPath><clipPath id="caa5cefbd6"><path d="M 0.882812 0.0273438 L 16.214844 0.0273438 L 16.214844 15.363281 L 0.882812 15.363281 Z M 0.882812 0.0273438 " clip-rule="nonzero"/></clipPath><clipPath id="cb5287390d"><path d="M 8.546875 0.0273438 C 4.3125 0.0273438 0.882812 3.460938 0.882812 7.695312 C 0.882812 11.929688 4.3125 15.363281 8.546875 15.363281 C 12.78125 15.363281 16.214844 11.929688 16.214844 7.695312 C 16.214844 3.460938 12.78125 0.0273438 8.546875 0.0273438 Z M 8.546875 0.0273438 " clip-rule="nonzero"/></clipPath><clipPath id="827ee262a1"><rect x="0" width="17" y="0" height="16"/></clipPath><clipPath id="c8f820da7b"><path d="M 387.316406 399.214844 L 407.925781 399.214844 L 407.925781 419.828125 L 387.316406 419.828125 Z M 387.316406 399.214844 " clip-rule="nonzero"/></clipPath><clipPath id="6230f56402"><path d="M 397.621094 399.214844 C 391.929688 399.214844 387.316406 403.828125 387.316406 409.519531 C 387.316406 415.214844 391.929688 419.828125 397.621094 419.828125 C 403.3125 419.828125 407.925781 415.214844 407.925781 409.519531 C 407.925781 403.828125 403.3125 399.214844 397.621094 399.214844 Z M 397.621094 399.214844 " clip-rule="nonzero"/></clipPath><clipPath id="13d3a060ef"><path d="M 0.316406 0.214844 L 20.925781 0.214844 L 20.925781 20.828125 L 0.316406 20.828125 Z M 0.316406 0.214844 " clip-rule="nonzero"/></clipPath><clipPath id="42bbb261db"><path d="M 10.621094 0.214844 C 4.929688 0.214844 0.316406 4.828125 0.316406 10.519531 C 0.316406 16.214844 4.929688 20.828125 10.621094 20.828125 C 16.3125 20.828125 20.925781 16.214844 20.925781 10.519531 C 20.925781 4.828125 16.3125 0.214844 10.621094 0.214844 Z M 10.621094 0.214844 " clip-rule="nonzero"/></clipPath><clipPath id="b9ebfb96ee"><rect x="0" width="21" y="0" height="21"/></clipPath><mask id="1232fd7eea"><g filter="url(#611fb40546)"><rect x="-81" width="972" fill="#000000" y="-80.999999" height="971.999992" fill-opacity="0.8"/></g></mask><clipPath id="9c31760864"><path d="M 0.851562 0.691406 L 6.703125 0.691406 L 6.703125 6.546875 L 0.851562 6.546875 Z M 0.851562 0.691406 " clip-rule="nonzero"/></clipPath><clipPath id="1875fd3d5b"><path d="M 3.777344 0.691406 C 2.160156 0.691406 0.851562 2.003906 0.851562 3.617188 C 0.851562 5.234375 2.160156 6.546875 3.777344 6.546875 C 5.394531 6.546875 6.703125 5.234375 6.703125 3.617188 C 6.703125 2.003906 5.394531 0.691406 3.777344 0.691406 Z M 3.777344 0.691406 " clip-rule="nonzero"/></clipPath><clipPath id="448ccc518f"><path d="M 0.851562 0.691406 L 6.703125 0.691406 L 6.703125 6.546875 L 0.851562 6.546875 Z M 0.851562 0.691406 " clip-rule="nonzero"/></clipPath><clipPath id="02b01241f0"><path d="M 3.777344 0.691406 C 2.160156 0.691406 0.851562 2.003906 0.851562 3.617188 C 0.851562 5.234375 2.160156 6.546875 3.777344 6.546875 C 5.394531 6.546875 6.703125 5.234375 6.703125 3.617188 C 6.703125 2.003906 5.394531 0.691406 3.777344 0.691406 Z M 3.777344 0.691406 " clip-rule="nonzero"/></clipPath><clipPath id="21e7e6fb9f"><rect x="0" width="7" y="0" height="7"/></clipPath><clipPath id="068a4879d7"><rect x="0" width="7" y="0" height="7"/></clipPath></defs><g clip-path="url(#231e7c1949)"><g clip-path="url(#d278bec42b)"><g transform="matrix(1, 0, 0, 1, 330, 394)"><g clip-path="url(#7d1f654442)"><g clip-path="url(#a260d0d191)"><g clip-path="url(#76d116bf3e)"><path fill="#0e9e86" d="M 0.117188 0.378906 L 25.566406 0.378906 L 25.566406 25.828125 L 0.117188 25.828125 Z M 0.117188 0.378906 " fill-opacity="1" fill-rule="nonzero"/></g></g></g></g></g></g><g mask="url(#c51e173bba)"><g transform="matrix(1, 0, 0, 1, 369, 468)"><g clip-path="url(#4d74079eb0)"><g clip-path="url(#4ee218d9ad)"><g clip-path="url(#30070948de)"><g transform="matrix(1, 0, 0, 1, 0, 0.000000000000056843)"><g clip-path="url(#85bbef8b8c)"><g clip-path="url(#5fdf32f7a0)"><g clip-path="url(#7254dbba9a)"><path fill="#0e9e86" d="M 0.390625 0.261719 L 9.101562 0.261719 L 9.101562 8.972656 L 0.390625 8.972656 Z M 0.390625 0.261719 " fill-opacity="1" fill-rule="nonzero"/></g></g></g></g></g></g></g></g></g><g mask="url(#ae5523f14c)"><g transform="matrix(1, 0, 0, 1, 453, 446)"><g clip-path="url(#65a5ec358d)"><g clip-path="url(#b89c85dc70)"><g clip-path="url(#62dbebb070)"><g transform="matrix(1, 0, 0, 1, 0, 0.000000000000056843)"><g clip-path="url(#7ef437bc92)"><g clip-path="url(#cc6832698c)"><g clip-path="url(#ada8ba297f)"><path fill="#0e9e86" d="M 0.550781 0.640625 L 10.078125 0.640625 L 10.078125 10.167969 L 0.550781 10.167969 Z M 0.550781 0.640625 " fill-opacity="1" fill-rule="nonzero"/></g></g></g></g></g></g></g></g></g><g mask="url(#931e4a655d)"><g transform="matrix(1, 0, 0, 1, 469, 377)"><g clip-path="url(#b3a731c47d)"><g clip-path="url(#dd53fd2709)"><g clip-path="url(#d6e9c9ec7a)"><g transform="matrix(1, 0, 0, 1, 0, 0.000000000000056843)"><g clip-path="url(#5db6a85c27)"><g clip-path="url(#2ed4f58085)"><g clip-path="url(#8537dbe32e)"><path fill="#0e9e86" d="M 0.542969 0.777344 L 10.882812 0.777344 L 10.882812 11.117188 L 0.542969 11.117188 Z M 0.542969 0.777344 " fill-opacity="1" fill-rule="nonzero"/></g></g></g></g></g></g></g></g></g><g clip-path="url(#f62ee4ed51)"><g clip-path="url(#cc59545b93)"><g transform="matrix(1, 0, 0, 1, 403, 333)"><g clip-path="url(#827ee262a1)"><g clip-path="url(#caa5cefbd6)"><g clip-path="url(#cb5287390d)"><path fill="#0e9e86" d="M 0.882812 0.0273438 L 16.214844 0.0273438 L 16.214844 15.363281 L 0.882812 15.363281 Z M 0.882812 0.0273438 " fill-opacity="1" fill-rule="nonzero"/></g></g></g></g></g></g><g clip-path="url(#c8f820da7b)"><g clip-path="url(#6230f56402)"><g transform="matrix(1, 0, 0, 1, 387, 399)"><g clip-path="url(#b9ebfb96ee)"><g clip-path="url(#13d3a060ef)"><g clip-path="url(#42bbb261db)"><path fill="#050d0b" d="M 0.316406 0.214844 L 20.925781 0.214844 L 20.925781 20.828125 L 0.316406 20.828125 Z M 0.316406 0.214844 " fill-opacity="1" fill-rule="nonzero"/></g></g></g></g></g></g><g mask="url(#1232fd7eea)"><g transform="matrix(1, 0, 0, 1, 435, 411)"><g clip-path="url(#068a4879d7)"><g clip-path="url(#9c31760864)"><g clip-path="url(#1875fd3d5b)"><g transform="matrix(1, 0, 0, 1, -0.000000000000056843, 0)"><g clip-path="url(#21e7e6fb9f)"><g clip-path="url(#448ccc518f)"><g clip-path="url(#02b01241f0)"><path fill="#0e9e86" d="M 0.851562 0.691406 L 6.703125 0.691406 L 6.703125 6.546875 L 0.851562 6.546875 Z M 0.851562 0.691406 " fill-opacity="1" fill-rule="nonzero"/></g></g></g></g></g></g></g></g></g><path stroke-linecap="butt" transform="matrix(0.319987, 0.678313, -0.678313, 0.319987, 348.608014, 418.456871)" fill="none" stroke-linejoin="miter" d="M 0.000772991 0.499371 L 73.80563 0.49847 " stroke="#050d0b" stroke-width="5" stroke-opacity="1" stroke-miterlimit="4"/><path stroke-linecap="butt" transform="matrix(0.744312, 0.0921943, -0.0921943, 0.744312, 407.896063, 410.416415)" fill="none" stroke-linejoin="miter" d="M 0.00219324 0.500388 L 37.646761 0.497884 " stroke="#050d0b" stroke-width="5" stroke-opacity="1" stroke-miterlimit="4"/><path stroke-linecap="butt" transform="matrix(0.617287, 0.425978, -0.425978, 0.617287, 406.316623, 415.068503)" fill="none" stroke-linejoin="miter" d="M 0.00334585 0.500542 L 78.228968 0.49721 " stroke="#050d0b" stroke-width="5" stroke-opacity="1" stroke-miterlimit="4"/><path stroke-linecap="butt" transform="matrix(0.724832, -0.192663, 0.192663, 0.724832, 377.859623, 471.1343)" fill="none" stroke-linejoin="miter" d="M 0.00160053 0.499567 L 104.29328 0.498793 " stroke="#050d0b" stroke-width="5" stroke-opacity="1" stroke-miterlimit="4"/><path stroke-linecap="butt" transform="matrix(0.539275, -0.521232, 0.521232, 0.539275, 351.468502, 397.721251)" fill="none" stroke-linejoin="miter" d="M -0.00249794 0.999798 L 100.218616 1.000113 " stroke="#050d0b" stroke-width="8" stroke-opacity="1" stroke-miterlimit="4"/><path stroke-linecap="butt" transform="matrix(0.623384, 0.417003, -0.417003, 0.623384, 418.129446, 344.647267)" fill="none" stroke-linejoin="miter" d="M -0.000398653 0.497173 L 84.20725 0.500877 " stroke="#050d0b" stroke-width="5" stroke-opacity="1" stroke-miterlimit="4"/><path stroke-linecap="butt" transform="matrix(0.186993, -0.726315, 0.726315, 0.186993, 457.950916, 446.54695)" fill="none" stroke-linejoin="miter" d="M -0.000754186 0.498027 L 80.795922 0.499329 " stroke="#050d0b" stroke-width="5" stroke-opacity="1" stroke-miterlimit="4"/><path stroke-linecap="butt" transform="matrix(-0.74927, -0.0330726, 0.0330726, -0.74927, 387.281557, 409.815935)" fill="none" stroke-linejoin="miter" d="M -0.00235158 1.000449 L 42.403476 1.000279 " stroke="#050d0b" stroke-width="8" stroke-opacity="1" stroke-miterlimit="4"/><path stroke-linecap="butt" transform="matrix(-0.148746, 0.735102, -0.735102, -0.148746, 410.392975, 348.286644)" fill="none" stroke-linejoin="miter" d="M -0.00225048 0.497844 L 69.657978 0.500026 " stroke="#050d0b" stroke-width="5" stroke-opacity="1" stroke-miterlimit="4"/></svg>