<svg xmlns="http://www.w3.org/2000/svg" xmlns:xlink="http://www.w3.org/1999/xlink" width="1080" zoomAndPan="magnify" viewBox="0 0 810 809.999993" height="1080" preserveAspectRatio="xMidYMid meet" version="1.0"><defs><filter x="0%" y="0%" width="100%" height="100%" id="4b61565ad3"><feColorMatrix values="0 0 0 0 1 0 0 0 0 1 0 0 0 0 1 0 0 0 1 0" color-interpolation-filters="sRGB"/></filter><g/><clipPath id="ab5c3cb29f"><rect x="0" width="217" y="0" height="132"/></clipPath><clipPath id="743451493f"><rect x="0" width="267" y="0" height="132"/></clipPath><clipPath id="a8b8ae6559"><path d="M 87.503906 400.757812 L 112.949219 400.757812 L 112.949219 426.207031 L 87.503906 426.207031 Z M 87.503906 400.757812 " clip-rule="nonzero"/></clipPath><clipPath id="bd777b53ab"><path d="M 100.226562 400.757812 C 93.199219 400.757812 87.503906 406.457031 87.503906 413.484375 C 87.503906 420.511719 93.199219 426.207031 100.226562 426.207031 C 107.253906 426.207031 112.949219 420.511719 112.949219 413.484375 C 112.949219 406.457031 107.253906 400.757812 100.226562 400.757812 Z M 100.226562 400.757812 " clip-rule="nonzero"/></clipPath><clipPath id="176dbffd0e"><path d="M 0.503906 0.757812 L 25.949219 0.757812 L 25.949219 26.207031 L 0.503906 26.207031 Z M 0.503906 0.757812 " clip-rule="nonzero"/></clipPath><clipPath id="d9490b3a2a"><path d="M 13.226562 0.757812 C 6.199219 0.757812 0.503906 6.457031 0.503906 13.484375 C 0.503906 20.511719 6.199219 26.207031 13.226562 26.207031 C 20.253906 26.207031 25.949219 20.511719 25.949219 13.484375 C 25.949219 6.457031 20.253906 0.757812 13.226562 0.757812 Z M 13.226562 0.757812 " clip-rule="nonzero"/></clipPath><clipPath id="7fa82ae570"><rect x="0" width="26" y="0" height="27"/></clipPath><mask id="85798aeb5b"><g filter="url(#4b61565ad3)"><rect x="-81" width="972" fill="#000000" y="-80.999999" height="971.999992" fill-opacity="0.77"/></g></mask><clipPath id="a55000d033"><path d="M 0.777344 0.640625 L 9.488281 0.640625 L 9.488281 9.351562 L 0.777344 9.351562 Z M 0.777344 0.640625 " clip-rule="nonzero"/></clipPath><clipPath id="8cdeb85d5f"><path d="M 5.132812 0.640625 C 2.726562 0.640625 0.777344 2.589844 0.777344 4.996094 C 0.777344 7.402344 2.726562 9.351562 5.132812 9.351562 C 7.539062 9.351562 9.488281 7.402344 9.488281 4.996094 C 9.488281 2.589844 7.539062 0.640625 5.132812 0.640625 Z M 5.132812 0.640625 " clip-rule="nonzero"/></clipPath><clipPath id="99924f2847"><path d="M 0.777344 0.640625 L 9.488281 0.640625 L 9.488281 9.351562 L 0.777344 9.351562 Z M 0.777344 0.640625 " clip-rule="nonzero"/></clipPath><clipPath id="aa6723396d"><path d="M 5.132812 0.640625 C 2.726562 0.640625 0.777344 2.589844 0.777344 4.996094 C 0.777344 7.402344 2.726562 9.351562 5.132812 9.351562 C 7.539062 9.351562 9.488281 7.402344 9.488281 4.996094 C 9.488281 2.589844 7.539062 0.640625 5.132812 0.640625 Z M 5.132812 0.640625 " clip-rule="nonzero"/></clipPath><clipPath id="c28c84b685"><rect x="0" width="10" y="0" height="10"/></clipPath><clipPath id="119da58c67"><rect x="0" width="10" y="0" height="10"/></clipPath><mask id="07b46321ec"><g filter="url(#4b61565ad3)"><rect x="-81" width="972" fill="#000000" y="-80.999999" height="971.999992" fill-opacity="0.75"/></g></mask><clipPath id="35e1c5dbc5"><path d="M 0.9375 1.019531 L 10.464844 1.019531 L 10.464844 10.546875 L 0.9375 10.546875 Z M 0.9375 1.019531 " clip-rule="nonzero"/></clipPath><clipPath id="efb1bc6beb"><path d="M 5.699219 1.019531 C 3.070312 1.019531 0.9375 3.152344 0.9375 5.785156 C 0.9375 8.414062 3.070312 10.546875 5.699219 10.546875 C 8.332031 10.546875 10.464844 8.414062 10.464844 5.785156 C 10.464844 3.152344 8.332031 1.019531 5.699219 1.019531 Z M 5.699219 1.019531 " clip-rule="nonzero"/></clipPath><clipPath id="9515e97731"><path d="M 0.9375 0.0195312 L 10.464844 0.0195312 L 10.464844 9.546875 L 0.9375 9.546875 Z M 0.9375 0.0195312 " clip-rule="nonzero"/></clipPath><clipPath id="ef9c5c136a"><path d="M 5.699219 0.0195312 C 3.070312 0.0195312 0.9375 2.152344 0.9375 4.785156 C 0.9375 7.414062 3.070312 9.546875 5.699219 9.546875 C 8.332031 9.546875 10.464844 7.414062 10.464844 4.785156 C 10.464844 2.152344 8.332031 0.0195312 5.699219 0.0195312 Z M 5.699219 0.0195312 " clip-rule="nonzero"/></clipPath><clipPath id="c2963eaea4"><rect x="0" width="11" y="0" height="10"/></clipPath><clipPath id="8d4d7b7402"><rect x="0" width="11" y="0" height="11"/></clipPath><mask id="83baab963e"><g filter="url(#4b61565ad3)"><rect x="-81" width="972" fill="#000000" y="-80.999999" height="971.999992" fill-opacity="0.78"/></g></mask><clipPath id="501831aa24"><path d="M 0.929688 0.15625 L 11.269531 0.15625 L 11.269531 10.496094 L 0.929688 10.496094 Z M 0.929688 0.15625 " clip-rule="nonzero"/></clipPath><clipPath id="c6423c930c"><path d="M 6.097656 0.15625 C 3.242188 0.15625 0.929688 2.472656 0.929688 5.328125 C 0.929688 8.183594 3.242188 10.496094 6.097656 10.496094 C 8.953125 10.496094 11.269531 8.183594 11.269531 5.328125 C 11.269531 2.472656 8.953125 0.15625 6.097656 0.15625 Z M 6.097656 0.15625 " clip-rule="nonzero"/></clipPath><clipPath id="f3af2790ba"><path d="M 0.929688 0.15625 L 11.269531 0.15625 L 11.269531 10.496094 L 0.929688 10.496094 Z M 0.929688 0.15625 " clip-rule="nonzero"/></clipPath><clipPath id="acd6c7f8e3"><path d="M 6.097656 0.15625 C 3.242188 0.15625 0.929688 2.472656 0.929688 5.328125 C 0.929688 8.183594 3.242188 10.496094 6.097656 10.496094 C 8.953125 10.496094 11.269531 8.183594 11.269531 5.328125 C 11.269531 2.472656 8.953125 0.15625 6.097656 0.15625 Z M 6.097656 0.15625 " clip-rule="nonzero"/></clipPath><clipPath id="a61465121f"><rect x="0" width="12" y="0" height="11"/></clipPath><clipPath id="84a0bb8244"><rect x="0" width="12" y="0" height="11"/></clipPath><clipPath id="e8f3bd36bd"><path d="M 161.265625 339.40625 L 176.601562 339.40625 L 176.601562 354.742188 L 161.265625 354.742188 Z M 161.265625 339.40625 " clip-rule="nonzero"/></clipPath><clipPath id="9e2daa2a36"><path d="M 168.933594 339.40625 C 164.699219 339.40625 161.265625 342.839844 161.265625 347.074219 C 161.265625 351.308594 164.699219 354.742188 168.933594 354.742188 C 173.167969 354.742188 176.601562 351.308594 176.601562 347.074219 C 176.601562 342.839844 173.167969 339.40625 168.933594 339.40625 Z M 168.933594 339.40625 " clip-rule="nonzero"/></clipPath><clipPath id="ece6840fbe"><path d="M 0.265625 0.40625 L 15.601562 0.40625 L 15.601562 15.742188 L 0.265625 15.742188 Z M 0.265625 0.40625 " clip-rule="nonzero"/></clipPath><clipPath id="5975e3e46e"><path d="M 7.933594 0.40625 C 3.699219 0.40625 0.265625 3.839844 0.265625 8.074219 C 0.265625 12.308594 3.699219 15.742188 7.933594 15.742188 C 12.167969 15.742188 15.601562 12.308594 15.601562 8.074219 C 15.601562 3.839844 12.167969 0.40625 7.933594 0.40625 Z M 7.933594 0.40625 " clip-rule="nonzero"/></clipPath><clipPath id="98a370101c"><rect x="0" width="16" y="0" height="16"/></clipPath><clipPath id="fa6d5db238"><path d="M 144.703125 405.59375 L 165.3125 405.59375 L 165.3125 426.207031 L 144.703125 426.207031 Z M 144.703125 405.59375 " clip-rule="nonzero"/></clipPath><clipPath id="1673465127"><path d="M 155.007812 405.59375 C 149.316406 405.59375 144.703125 410.210938 144.703125 415.902344 C 144.703125 421.59375 149.316406 426.207031 155.007812 426.207031 C 160.699219 426.207031 165.3125 421.59375 165.3125 415.902344 C 165.3125 410.210938 160.699219 405.59375 155.007812 405.59375 Z M 155.007812 405.59375 " clip-rule="nonzero"/></clipPath><clipPath id="ccc569057b"><path d="M 0.703125 0.59375 L 21.3125 0.59375 L 21.3125 21.207031 L 0.703125 21.207031 Z M 0.703125 0.59375 " clip-rule="nonzero"/></clipPath><clipPath id="a2dc0c1c1f"><path d="M 11.007812 0.59375 C 5.316406 0.59375 0.703125 5.210938 0.703125 10.902344 C 0.703125 16.59375 5.316406 21.207031 11.007812 21.207031 C 16.699219 21.207031 21.3125 16.59375 21.3125 10.902344 C 21.3125 5.210938 16.699219 0.59375 11.007812 0.59375 Z M 11.007812 0.59375 " clip-rule="nonzero"/></clipPath><clipPath id="4d59d7e343"><rect x="0" width="22" y="0" height="22"/></clipPath><mask id="f81db6a532"><g filter="url(#4b61565ad3)"><rect x="-81" width="972" fill="#000000" y="-80.999999" height="971.999992" fill-opacity="0.8"/></g></mask><clipPath id="f560800a58"><path d="M 0.238281 1.070312 L 6.089844 1.070312 L 6.089844 6.925781 L 0.238281 6.925781 Z M 0.238281 1.070312 " clip-rule="nonzero"/></clipPath><clipPath id="b1be241ab9"><path d="M 3.164062 1.070312 C 1.546875 1.070312 0.238281 2.382812 0.238281 4 C 0.238281 5.617188 1.546875 6.925781 3.164062 6.925781 C 4.78125 6.925781 6.089844 5.617188 6.089844 4 C 6.089844 2.382812 4.78125 1.070312 3.164062 1.070312 Z M 3.164062 1.070312 " clip-rule="nonzero"/></clipPath><clipPath id="1b9e39c255"><path d="M 0.238281 0.0703125 L 6.089844 0.0703125 L 6.089844 5.925781 L 0.238281 5.925781 Z M 0.238281 0.0703125 " clip-rule="nonzero"/></clipPath><clipPath id="dee6f0eeb8"><path d="M 3.164062 0.0703125 C 1.546875 0.0703125 0.238281 1.382812 0.238281 3 C 0.238281 4.617188 1.546875 5.925781 3.164062 5.925781 C 4.78125 5.925781 6.089844 4.617188 6.089844 3 C 6.089844 1.382812 4.78125 0.0703125 3.164062 0.0703125 Z M 3.164062 0.0703125 " clip-rule="nonzero"/></clipPath><clipPath id="363a29e678"><rect x="0" width="7" y="0" height="6"/></clipPath><clipPath id="257b13ea04"><rect x="0" width="7" y="0" height="8"/></clipPath></defs><g transform="matrix(1, 0, 0, 1, 252, 325)"><g clip-path="url(#ab5c3cb29f)"><g fill="#e8f8f5" fill-opacity="1"><g transform="translate(0.773692, 100.352217)"><g><path d="M 20.828125 1.296875 C 14.960938 1.296875 9.429688 0.0664062 4.234375 -2.390625 C 3.503906 -2.890625 3.285156 -3.578125 3.578125 -4.453125 L 7.046875 -19.734375 C 7.046875 -20.097656 7.242188 -20.28125 7.640625 -20.28125 C 8.046875 -20.28125 8.28125 -20.097656 8.34375 -19.734375 C 11.019531 -7.441406 16.15625 -1.296875 23.75 -1.296875 C 27.289062 -1.296875 30.164062 -2.539062 32.375 -5.03125 C 34.582031 -7.53125 35.6875 -10.84375 35.6875 -14.96875 C 35.6875 -18.4375 34.691406 -21.4375 32.703125 -23.96875 C 30.710938 -26.5 27.835938 -29.210938 24.078125 -32.109375 C 21.328125 -34.203125 19.15625 -35.96875 17.5625 -37.40625 C 15.976562 -38.851562 14.644531 -40.550781 13.5625 -42.5 C 12.476562 -44.457031 11.9375 -46.628906 11.9375 -49.015625 C 11.9375 -50.035156 12.039062 -51.085938 12.25 -52.171875 C 13.40625 -57.585938 16.28125 -61.738281 20.875 -64.625 C 25.46875 -67.519531 30.65625 -68.96875 36.4375 -68.96875 C 40.707031 -68.96875 44.972656 -68.101562 49.234375 -66.375 C 50.242188 -65.863281 50.644531 -65.25 50.4375 -64.53125 L 48.796875 -50.4375 C 48.734375 -50.21875 48.535156 -50.109375 48.203125 -50.109375 C 47.878906 -50.109375 47.679688 -50.21875 47.609375 -50.4375 C 46.453125 -55.488281 44.609375 -59.460938 42.078125 -62.359375 C 39.546875 -65.253906 36.691406 -66.703125 33.515625 -66.703125 C 31.054688 -66.703125 29.03125 -66.03125 27.4375 -64.6875 C 25.84375 -63.351562 24.6875 -61.765625 23.96875 -59.921875 C 23.25 -58.078125 22.890625 -56.285156 22.890625 -54.546875 C 22.890625 -52.378906 23.394531 -50.425781 24.40625 -48.6875 C 25.414062 -46.957031 26.609375 -45.457031 27.984375 -44.1875 C 29.359375 -42.925781 31.414062 -41.210938 34.15625 -39.046875 C 38.425781 -35.710938 41.679688 -32.671875 43.921875 -29.921875 C 46.160156 -27.179688 47.28125 -23.929688 47.28125 -20.171875 C 47.28125 -18.941406 47.207031 -18.003906 47.0625 -17.359375 C 46.050781 -11.859375 43.269531 -7.375 38.71875 -3.90625 C 34.164062 -0.4375 28.203125 1.296875 20.828125 1.296875 Z M 20.828125 1.296875 "/></g></g></g><g fill="#e8f8f5" fill-opacity="1"><g transform="translate(51.748639, 100.352217)"><g><path d="M 32.96875 -41.859375 C 33.476562 -41.859375 33.734375 -41.535156 33.734375 -40.890625 C 33.734375 -40.304688 33.316406 -39.4375 32.484375 -38.28125 C 31.648438 -37.125 30.875 -36.546875 30.15625 -36.546875 C 29.9375 -36.546875 28.757812 -36.726562 26.625 -37.09375 C 24.488281 -37.457031 22.082031 -37.707031 19.40625 -37.84375 L 14.859375 -12.03125 C 14.710938 -10.875 14.640625 -10.082031 14.640625 -9.65625 C 14.640625 -7.914062 15.09375 -6.644531 16 -5.84375 C 16.90625 -5.050781 18.296875 -4.65625 20.171875 -4.65625 C 22.921875 -4.65625 25.957031 -5.992188 29.28125 -8.671875 L 29.390625 -8.671875 C 29.679688 -8.671875 29.929688 -8.5625 30.140625 -8.34375 C 30.359375 -8.132812 30.363281 -7.921875 30.15625 -7.703125 C 26.820312 -4.515625 23.875 -2.21875 21.3125 -0.8125 C 18.75 0.59375 16.203125 1.296875 13.671875 1.296875 C 7.804688 1.296875 4.875 -1.335938 4.875 -6.609375 C 4.875 -7.703125 4.984375 -8.894531 5.203125 -10.1875 L 9.4375 -33.1875 C 9.65625 -34.414062 9.765625 -35.425781 9.765625 -36.21875 C 9.765625 -37.300781 9.472656 -38.023438 8.890625 -38.390625 C 8.316406 -38.753906 7.269531 -38.9375 5.75 -38.9375 C 5.53125 -38.9375 5.421875 -39.1875 5.421875 -39.6875 C 5.421875 -40.34375 5.53125 -40.671875 5.75 -40.671875 C 11.53125 -40.671875 16.117188 -43.851562 19.515625 -50.21875 C 19.660156 -50.4375 19.914062 -50.546875 20.28125 -50.546875 C 20.644531 -50.546875 20.96875 -50.472656 21.25 -50.328125 C 21.539062 -50.179688 21.648438 -50.035156 21.578125 -49.890625 L 19.953125 -41 C 21.972656 -41.070312 23.707031 -41.160156 25.15625 -41.265625 C 26.601562 -41.367188 27.832031 -41.457031 28.84375 -41.53125 C 30.726562 -41.75 32.101562 -41.859375 32.96875 -41.859375 Z M 32.96875 -41.859375 "/></g></g></g><g fill="#e8f8f5" fill-opacity="1"><g transform="translate(84.394293, 100.352217)"><g><path d="M 17.140625 1.515625 C 12.367188 1.515625 8.734375 -0.0195312 6.234375 -3.09375 C 3.742188 -6.164062 2.5 -10.160156 2.5 -15.078125 C 2.5 -17.242188 2.675781 -19.195312 3.03125 -20.9375 C 3.832031 -25.269531 5.40625 -29.132812 7.75 -32.53125 C 10.101562 -35.9375 12.941406 -38.578125 16.265625 -40.453125 C 19.585938 -42.328125 23.164062 -43.265625 27 -43.265625 C 31.84375 -43.265625 35.546875 -41.800781 38.109375 -38.875 C 40.679688 -35.945312 41.96875 -32.023438 41.96875 -27.109375 C 41.96875 -25.160156 41.753906 -23.101562 41.328125 -20.9375 C 40.378906 -16.164062 38.65625 -12.097656 36.15625 -8.734375 C 33.664062 -5.367188 30.738281 -2.816406 27.375 -1.078125 C 24.019531 0.648438 20.609375 1.515625 17.140625 1.515625 Z M 20.828125 -1.1875 C 23.140625 -1.1875 25.144531 -2.523438 26.84375 -5.203125 C 28.539062 -7.878906 29.785156 -11.53125 30.578125 -16.15625 C 31.085938 -18.976562 31.34375 -21.835938 31.34375 -24.734375 C 31.34375 -29.429688 30.632812 -33.257812 29.21875 -36.21875 C 27.8125 -39.1875 25.878906 -40.671875 23.421875 -40.671875 C 21.253906 -40.671875 19.320312 -39.40625 17.625 -36.875 C 15.925781 -34.34375 14.644531 -30.582031 13.78125 -25.59375 C 13.269531 -22.769531 13.015625 -19.914062 13.015625 -17.03125 C 13.015625 -12.332031 13.703125 -8.515625 15.078125 -5.578125 C 16.453125 -2.648438 18.367188 -1.1875 20.828125 -1.1875 Z M 20.828125 -1.1875 "/></g></g></g><g fill="#e8f8f5" fill-opacity="1"><g transform="translate(128.644879, 100.352217)"><g><path d="M 32.203125 -42.84375 C 34.085938 -42.84375 35.878906 -42.15625 37.578125 -40.78125 C 39.273438 -39.40625 39.976562 -37.847656 39.6875 -36.109375 C 39.550781 -35.023438 39.046875 -34.015625 38.171875 -33.078125 C 37.304688 -32.140625 36.222656 -31.671875 34.921875 -31.671875 C 33.617188 -31.671875 32.207031 -32.285156 30.6875 -33.515625 C 30.1875 -33.867188 29.679688 -34.191406 29.171875 -34.484375 C 28.671875 -34.773438 28.164062 -34.921875 27.65625 -34.921875 C 26.425781 -34.921875 24.90625 -33.003906 23.09375 -29.171875 C 21.289062 -25.335938 19.578125 -20.765625 17.953125 -15.453125 C 16.328125 -10.140625 15.148438 -5.457031 14.421875 -1.40625 L 14.421875 -1.296875 C 14.273438 -0.648438 13.695312 -0.128906 12.6875 0.265625 C 11.675781 0.671875 10.226562 0.875 8.34375 0.875 C 5.957031 0.875 4.765625 0.582031 4.765625 0 C 4.835938 -0.507812 5.070312 -1.59375 5.46875 -3.25 C 5.875 -4.914062 6.21875 -6.507812 6.5 -8.03125 L 10.953125 -32.203125 C 11.097656 -33.367188 11.171875 -34.128906 11.171875 -34.484375 C 11.171875 -36.515625 10.519531 -37.53125 9.21875 -37.53125 C 7.769531 -37.53125 5.707031 -36.082031 3.03125 -33.1875 C 2.957031 -33.113281 2.851562 -33.078125 2.71875 -33.078125 C 2.425781 -33.078125 2.207031 -33.203125 2.0625 -33.453125 C 1.914062 -33.710938 1.953125 -33.945312 2.171875 -34.15625 C 4.773438 -37.195312 7.101562 -39.40625 9.15625 -40.78125 C 11.21875 -42.15625 13.300781 -42.84375 15.40625 -42.84375 C 17.207031 -42.84375 18.503906 -42.351562 19.296875 -41.375 C 20.097656 -40.394531 20.5 -38.96875 20.5 -37.09375 C 20.5 -36.007812 20.390625 -34.816406 20.171875 -33.515625 L 18 -21.578125 C 22.269531 -35.753906 27.003906 -42.84375 32.203125 -42.84375 Z M 32.203125 -42.84375 "/></g></g></g><g fill="#e8f8f5" fill-opacity="1"><g transform="translate(167.255687, 100.352217)"><g><path d="M 39.90625 -42.953125 C 41.71875 -42.953125 43.128906 -42.300781 44.140625 -41 C 45.148438 -39.695312 45.65625 -37.816406 45.65625 -35.359375 C 45.65625 -30.003906 42.726562 -21.941406 36.875 -11.171875 C 31.019531 -0.398438 24.332031 9.226562 16.8125 17.71875 C 9.289062 26.21875 3.144531 30.46875 -1.625 30.46875 C -5.894531 30.46875 -8.03125 28.769531 -8.03125 25.375 C -8.03125 23.351562 -7.46875 21.78125 -6.34375 20.65625 C -5.21875 19.539062 -3.644531 18.984375 -1.625 18.984375 C -0.539062 18.984375 0.9375 19.414062 2.8125 20.28125 C 3.03125 20.351562 3.570312 20.566406 4.4375 20.921875 C 5.3125 21.285156 6.179688 21.46875 7.046875 21.46875 C 8.273438 21.46875 9.503906 21.035156 10.734375 20.171875 C 12.617188 18.941406 14.96875 16.484375 17.78125 12.796875 L 17.78125 7.703125 C 17.78125 -6.398438 16.785156 -17.335938 14.796875 -25.109375 C 12.816406 -32.878906 10.160156 -36.765625 6.828125 -36.765625 C 5.960938 -36.765625 5.078125 -36.4375 4.171875 -35.78125 C 3.265625 -35.132812 2.523438 -34.34375 1.953125 -33.40625 C 1.878906 -33.1875 1.660156 -33.078125 1.296875 -33.078125 C 0.796875 -33.078125 0.582031 -33.296875 0.65625 -33.734375 C 1.882812 -36.335938 3.765625 -38.503906 6.296875 -40.234375 C 8.828125 -41.972656 11.140625 -42.84375 13.234375 -42.84375 C 15.984375 -42.84375 18.382812 -41.234375 20.4375 -38.015625 C 22.5 -34.796875 24.050781 -30.382812 25.09375 -24.78125 C 26.144531 -19.175781 26.671875 -12.90625 26.671875 -5.96875 C 26.671875 -3.21875 26.640625 -1.117188 26.578125 0.328125 C 29.390625 -4.160156 31.828125 -8.335938 33.890625 -12.203125 C 35.953125 -16.066406 37.203125 -18.90625 37.640625 -20.71875 C 38.066406 -22.445312 38.28125 -23.925781 38.28125 -25.15625 C 38.28125 -26.675781 38.0625 -27.90625 37.625 -28.84375 C 37.195312 -29.789062 36.585938 -30.878906 35.796875 -32.109375 C 35.066406 -33.191406 34.519531 -34.078125 34.15625 -34.765625 C 33.800781 -35.453125 33.625 -36.335938 33.625 -37.421875 C 33.625 -39.078125 34.203125 -40.410156 35.359375 -41.421875 C 36.515625 -42.441406 38.03125 -42.953125 39.90625 -42.953125 Z M 39.90625 -42.953125 "/></g></g></g></g></g><g transform="matrix(1, 0, 0, 1, 456, 325)"><g clip-path="url(#743451493f)"><g fill="#3ecfb2" fill-opacity="1"><g transform="translate(1.093311, 100.352217)"><g><path d="M 49.453125 -53.46875 C 49.453125 -53.25 49.269531 -53.117188 48.90625 -53.078125 C 48.550781 -53.046875 48.335938 -53.140625 48.265625 -53.359375 C 48.046875 -57.191406 46.882812 -60.171875 44.78125 -62.296875 C 42.6875 -64.429688 39.90625 -65.5 36.4375 -65.5 L 29.828125 -65.5 C 27.367188 -65.5 25.523438 -65.316406 24.296875 -64.953125 C 23.066406 -64.597656 22.21875 -63.945312 21.75 -63 C 21.28125 -62.0625 21.046875 -60.691406 21.046875 -58.890625 L 21.046875 -35.140625 L 32 -35.140625 C 35.820312 -35.140625 38.546875 -35.734375 40.171875 -36.921875 C 41.804688 -38.117188 42.625 -40.054688 42.625 -42.734375 C 42.625 -42.878906 42.835938 -42.953125 43.265625 -42.953125 C 43.703125 -42.953125 43.921875 -42.878906 43.921875 -42.734375 L 43.8125 -33.953125 C 43.8125 -31.847656 43.847656 -30.253906 43.921875 -29.171875 L 44.03125 -23.96875 C 44.03125 -23.820312 43.8125 -23.75 43.375 -23.75 C 42.945312 -23.75 42.734375 -23.820312 42.734375 -23.96875 C 42.734375 -27.144531 41.882812 -29.421875 40.1875 -30.796875 C 38.488281 -32.171875 35.648438 -32.859375 31.671875 -32.859375 L 21.046875 -32.859375 L 21.046875 -9.21875 C 21.046875 -6.90625 21.351562 -5.222656 21.96875 -4.171875 C 22.582031 -3.128906 23.789062 -2.390625 25.59375 -1.953125 C 27.40625 -1.515625 30.257812 -1.296875 34.15625 -1.296875 C 34.375 -1.296875 34.484375 -1.078125 34.484375 -0.640625 C 34.484375 -0.210938 34.375 0 34.15625 0 C 31.195312 0 28.882812 -0.0351562 27.21875 -0.109375 L 17.46875 -0.21875 L 10.09375 -0.109375 C 8.789062 -0.0351562 6.945312 0 4.5625 0 C 4.414062 0 4.34375 -0.210938 4.34375 -0.640625 C 4.34375 -1.078125 4.414062 -1.296875 4.5625 -1.296875 C 7.300781 -1.296875 9.320312 -1.476562 10.625 -1.84375 C 11.925781 -2.207031 12.8125 -2.910156 13.28125 -3.953125 C 13.75 -5.003906 13.984375 -6.613281 13.984375 -8.78125 L 13.984375 -59 C 13.984375 -61.164062 13.75 -62.753906 13.28125 -63.765625 C 12.8125 -64.773438 11.941406 -65.476562 10.671875 -65.875 C 9.410156 -66.28125 7.40625 -66.484375 4.65625 -66.484375 C 4.519531 -66.484375 4.453125 -66.695312 4.453125 -67.125 C 4.453125 -67.5625 4.519531 -67.78125 4.65625 -67.78125 L 48.265625 -67.78125 C 48.910156 -67.78125 49.234375 -67.457031 49.234375 -66.8125 Z M 49.453125 -53.46875 "/></g></g></g><g fill="#3ecfb2" fill-opacity="1"><g transform="translate(56.298086, 100.352217)"><g><path d="M 29.828125 -42.84375 C 31.410156 -42.84375 32.925781 -42.40625 34.375 -41.53125 C 35.820312 -40.664062 36.546875 -39.617188 36.546875 -38.390625 C 36.546875 -37.453125 36.238281 -36.65625 35.625 -36 C 35.007812 -35.351562 34.125 -35.03125 32.96875 -35.03125 C 32.320312 -35.03125 31.757812 -35.15625 31.28125 -35.40625 C 30.8125 -35.664062 30.253906 -36.046875 29.609375 -36.546875 C 28.953125 -37.128906 28.332031 -37.5625 27.75 -37.84375 C 27.175781 -38.132812 26.492188 -38.28125 25.703125 -38.28125 C 24.765625 -38.28125 23.769531 -37.878906 22.71875 -37.078125 C 21.664062 -36.285156 20.019531 -34.59375 17.78125 -32 L 17.78125 -8.78125 C 17.78125 -6.613281 18.050781 -5.023438 18.59375 -4.015625 C 19.132812 -3.003906 20.128906 -2.296875 21.578125 -1.890625 C 23.023438 -1.492188 25.269531 -1.296875 28.3125 -1.296875 C 28.59375 -1.296875 28.734375 -1.078125 28.734375 -0.640625 C 28.734375 -0.210938 28.59375 0 28.3125 0 C 25.988281 0 24.144531 -0.0351562 22.78125 -0.109375 L 14.75 -0.21875 L 8.78125 -0.109375 C 7.84375 -0.0351562 6.539062 0 4.875 0 C 4.664062 0 4.5625 -0.210938 4.5625 -0.640625 C 4.5625 -1.078125 4.664062 -1.296875 4.875 -1.296875 C 6.832031 -1.296875 8.28125 -1.492188 9.21875 -1.890625 C 10.15625 -2.296875 10.785156 -3.003906 11.109375 -4.015625 C 11.441406 -5.023438 11.609375 -6.613281 11.609375 -8.78125 L 11.609375 -30.265625 C 11.609375 -32.722656 11.316406 -34.492188 10.734375 -35.578125 C 10.160156 -36.660156 9.1875 -37.203125 7.8125 -37.203125 C 6.65625 -37.203125 4.703125 -36.660156 1.953125 -35.578125 L 1.734375 -35.578125 C 1.441406 -35.578125 1.238281 -35.738281 1.125 -36.0625 C 1.019531 -36.382812 1.113281 -36.617188 1.40625 -36.765625 L 13.984375 -42.734375 L 14.640625 -42.84375 C 15.296875 -42.84375 15.984375 -42.007812 16.703125 -40.34375 C 17.421875 -38.675781 17.78125 -36.546875 17.78125 -33.953125 L 17.78125 -33.84375 C 20.75 -37.3125 23.097656 -39.675781 24.828125 -40.9375 C 26.566406 -42.207031 28.234375 -42.84375 29.828125 -42.84375 Z M 29.828125 -42.84375 "/></g></g></g><g fill="#3ecfb2" fill-opacity="1"><g transform="translate(94.041192, 100.352217)"><g><path d="M 45.015625 -5.859375 C 45.296875 -5.859375 45.472656 -5.691406 45.546875 -5.359375 C 45.617188 -5.035156 45.507812 -4.800781 45.21875 -4.65625 L 34.046875 0.65625 C 33.765625 0.800781 33.476562 0.875 33.1875 0.875 C 32.25 0.875 31.414062 0.242188 30.6875 -1.015625 C 29.96875 -2.285156 29.5 -4.007812 29.28125 -6.1875 L 23.640625 -2.5 C 21.835938 -1.34375 20.25 -0.507812 18.875 0 C 17.5 0.507812 16.050781 0.765625 14.53125 0.765625 C 11.851562 0.765625 9.773438 0.0625 8.296875 -1.34375 C 6.816406 -2.757812 6.078125 -4.550781 6.078125 -6.71875 C 6.078125 -8.894531 6.941406 -10.773438 8.671875 -12.359375 C 10.410156 -13.953125 13.269531 -15.472656 17.25 -16.921875 L 29.171875 -21.359375 L 29.171875 -28.734375 C 29.171875 -36.835938 26.894531 -40.890625 22.34375 -40.890625 C 19.882812 -40.890625 18.019531 -40.070312 16.75 -38.4375 C 15.488281 -36.8125 14.640625 -34.953125 14.203125 -32.859375 C 13.984375 -31.554688 13.582031 -30.488281 13 -29.65625 C 12.425781 -28.832031 11.457031 -28.421875 10.09375 -28.421875 C 8.925781 -28.421875 8.035156 -28.742188 7.421875 -29.390625 C 6.804688 -30.035156 6.5 -30.796875 6.5 -31.671875 C 6.5 -33.398438 7.617188 -35.132812 9.859375 -36.875 C 12.109375 -38.613281 14.785156 -40.0625 17.890625 -41.21875 C 21.003906 -42.375 23.789062 -42.953125 26.25 -42.953125 C 29.207031 -42.953125 31.445312 -42.007812 32.96875 -40.125 C 34.488281 -38.25 35.25 -35.539062 35.25 -32 L 35.25 -11.71875 C 35.25 -9.1875 35.570312 -7.34375 36.21875 -6.1875 C 36.875 -5.03125 37.960938 -4.453125 39.484375 -4.453125 C 40.847656 -4.453125 42.617188 -4.921875 44.796875 -5.859375 Z M 29.171875 -7.703125 L 29.171875 -19.84375 L 19.09375 -15.9375 C 17.0625 -15.144531 15.59375 -14.222656 14.6875 -13.171875 C 13.789062 -12.128906 13.34375 -10.882812 13.34375 -9.4375 C 13.34375 -7.695312 13.898438 -6.226562 15.015625 -5.03125 C 16.140625 -3.84375 17.601562 -3.25 19.40625 -3.25 C 20.851562 -3.25 22.59375 -3.828125 24.625 -4.984375 Z M 29.171875 -7.703125 "/></g></g></g><g fill="#3ecfb2" fill-opacity="1"><g transform="translate(139.48481, 100.352217)"><g><path d="M 80.46875 -1.296875 C 80.757812 -1.296875 80.90625 -1.078125 80.90625 -0.640625 C 80.90625 -0.210938 80.757812 0 80.46875 0 C 78.8125 0 77.472656 -0.0351562 76.453125 -0.109375 L 70.609375 -0.21875 L 64.75 -0.109375 C 63.738281 -0.0351562 62.398438 0 60.734375 0 C 60.515625 0 60.40625 -0.210938 60.40625 -0.640625 C 60.40625 -1.078125 60.515625 -1.296875 60.734375 -1.296875 C 62.679688 -1.296875 64.125 -1.492188 65.0625 -1.890625 C 66.007812 -2.296875 66.660156 -3.019531 67.015625 -4.0625 C 67.378906 -5.113281 67.5625 -6.6875 67.5625 -8.78125 L 67.5625 -26.03125 C 67.5625 -30.289062 66.800781 -33.453125 65.28125 -35.515625 C 63.769531 -37.578125 61.421875 -38.609375 58.234375 -38.609375 C 56.066406 -38.609375 53.878906 -38.007812 51.671875 -36.8125 C 49.472656 -35.625 47.429688 -33.945312 45.546875 -31.78125 C 45.617188 -31.414062 45.65625 -30.835938 45.65625 -30.046875 L 45.65625 -8.78125 C 45.65625 -6.613281 45.835938 -5.023438 46.203125 -4.015625 C 46.566406 -3.003906 47.21875 -2.296875 48.15625 -1.890625 C 49.09375 -1.492188 50.535156 -1.296875 52.484375 -1.296875 C 52.703125 -1.296875 52.8125 -1.078125 52.8125 -0.640625 C 52.8125 -0.210938 52.703125 0 52.484375 0 C 50.828125 0 49.492188 -0.0351562 48.484375 -0.109375 L 42.625 -0.21875 L 36.65625 -0.109375 C 35.71875 -0.0351562 34.414062 0 32.75 0 C 32.53125 0 32.421875 -0.210938 32.421875 -0.640625 C 32.421875 -1.078125 32.53125 -1.296875 32.75 -1.296875 C 34.707031 -1.296875 36.15625 -1.492188 37.09375 -1.890625 C 38.03125 -2.296875 38.660156 -3.003906 38.984375 -4.015625 C 39.316406 -5.023438 39.484375 -6.613281 39.484375 -8.78125 L 39.484375 -26.03125 C 39.484375 -30.289062 38.722656 -33.453125 37.203125 -35.515625 C 35.679688 -37.578125 33.367188 -38.609375 30.265625 -38.609375 C 28.085938 -38.609375 25.914062 -38.03125 23.75 -36.875 C 21.582031 -35.71875 19.59375 -34.09375 17.78125 -32 L 17.78125 -8.78125 C 17.78125 -6.613281 17.941406 -5.023438 18.265625 -4.015625 C 18.597656 -3.003906 19.234375 -2.296875 20.171875 -1.890625 C 21.109375 -1.492188 22.554688 -1.296875 24.515625 -1.296875 C 24.722656 -1.296875 24.828125 -1.078125 24.828125 -0.640625 C 24.828125 -0.210938 24.722656 0 24.515625 0 C 22.847656 0 21.546875 -0.0351562 20.609375 -0.109375 L 14.75 -0.21875 L 8.78125 -0.109375 C 7.84375 -0.0351562 6.539062 0 4.875 0 C 4.664062 0 4.5625 -0.210938 4.5625 -0.640625 C 4.5625 -1.078125 4.664062 -1.296875 4.875 -1.296875 C 6.832031 -1.296875 8.28125 -1.492188 9.21875 -1.890625 C 10.15625 -2.296875 10.785156 -3.003906 11.109375 -4.015625 C 11.441406 -5.023438 11.609375 -6.613281 11.609375 -8.78125 L 11.609375 -30.265625 C 11.609375 -32.722656 11.316406 -34.492188 10.734375 -35.578125 C 10.160156 -36.660156 9.1875 -37.203125 7.8125 -37.203125 C 6.65625 -37.203125 4.703125 -36.660156 1.953125 -35.578125 L 1.734375 -35.578125 C 1.441406 -35.578125 1.238281 -35.738281 1.125 -36.0625 C 1.019531 -36.382812 1.113281 -36.617188 1.40625 -36.765625 L 13.984375 -42.734375 L 14.640625 -42.84375 C 15.296875 -42.84375 15.984375 -42.007812 16.703125 -40.34375 C 17.421875 -38.675781 17.78125 -36.546875 17.78125 -33.953125 L 17.78125 -33.84375 C 20.382812 -37.019531 22.988281 -39.332031 25.59375 -40.78125 C 28.195312 -42.226562 30.910156 -42.953125 33.734375 -42.953125 C 36.984375 -42.953125 39.617188 -42.15625 41.640625 -40.5625 C 43.671875 -38.96875 44.9375 -36.582031 45.4375 -33.40625 C 48.113281 -36.65625 50.789062 -39.054688 53.46875 -40.609375 C 56.144531 -42.171875 58.925781 -42.953125 61.8125 -42.953125 C 65.644531 -42.953125 68.59375 -41.847656 70.65625 -39.640625 C 72.71875 -37.429688 73.75 -34.160156 73.75 -29.828125 L 73.75 -8.78125 C 73.75 -6.613281 73.910156 -5.023438 74.234375 -4.015625 C 74.554688 -3.003906 75.1875 -2.296875 76.125 -1.890625 C 77.070312 -1.492188 78.519531 -1.296875 80.46875 -1.296875 Z M 80.46875 -1.296875 "/></g></g></g><g fill="#3ecfb2" fill-opacity="1"><g transform="translate(222.237754, 100.352217)"><g><path d="M 38.9375 -6.078125 C 39.15625 -6.078125 39.351562 -5.945312 39.53125 -5.6875 C 39.707031 -5.4375 39.722656 -5.203125 39.578125 -4.984375 C 34.804688 -0.796875 29.53125 1.296875 23.75 1.296875 C 19.5625 1.296875 15.984375 0.320312 13.015625 -1.625 C 10.046875 -3.582031 7.785156 -6.148438 6.234375 -9.328125 C 4.679688 -12.503906 3.90625 -15.898438 3.90625 -19.515625 C 3.90625 -23.785156 4.914062 -27.707031 6.9375 -31.28125 C 8.96875 -34.863281 11.734375 -37.6875 15.234375 -39.75 C 18.742188 -41.8125 22.59375 -42.84375 26.78125 -42.84375 C 30.832031 -42.84375 33.941406 -41.753906 36.109375 -39.578125 C 38.285156 -37.410156 39.375 -34.375 39.375 -30.46875 C 39.375 -29.457031 39.28125 -28.734375 39.09375 -28.296875 C 38.914062 -27.867188 38.609375 -27.65625 38.171875 -27.65625 L 11.28125 -27.546875 C 11.132812 -25.953125 11.0625 -24.648438 11.0625 -23.640625 C 11.0625 -17.347656 12.539062 -12.25 15.5 -8.34375 C 18.46875 -4.445312 22.628906 -2.5 27.984375 -2.5 C 30.148438 -2.5 32.007812 -2.785156 33.5625 -3.359375 C 35.113281 -3.941406 36.867188 -4.847656 38.828125 -6.078125 Z M 23.203125 -40.671875 C 20.097656 -40.671875 17.53125 -39.640625 15.5 -37.578125 C 13.476562 -35.515625 12.144531 -32.640625 11.5 -28.953125 L 32.109375 -29.390625 C 32.109375 -33.078125 31.3125 -35.878906 29.71875 -37.796875 C 28.125 -39.710938 25.953125 -40.671875 23.203125 -40.671875 Z M 23.203125 -40.671875 "/></g></g></g></g></g><g clip-path="url(#a8b8ae6559)"><g clip-path="url(#bd777b53ab)"><g transform="matrix(1, 0, 0, 1, 87, 400)"><g clip-path="url(#7fa82ae570)"><g clip-path="url(#176dbffd0e)"><g clip-path="url(#d9490b3a2a)"><path fill="#3ecfb2" d="M 0.503906 0.757812 L 25.949219 0.757812 L 25.949219 26.207031 L 0.503906 26.207031 Z M 0.503906 0.757812 " fill-opacity="1" fill-rule="nonzero"/></g></g></g></g></g></g><g mask="url(#85798aeb5b)"><g transform="matrix(1, 0, 0, 1, 126, 474)"><g clip-path="url(#119da58c67)"><g clip-path="url(#a55000d033)"><g clip-path="url(#8cdeb85d5f)"><g><g clip-path="url(#c28c84b685)"><g clip-path="url(#99924f2847)"><g clip-path="url(#aa6723396d)"><path fill="#3ecfb2" d="M 0.777344 0.640625 L 9.488281 0.640625 L 9.488281 9.351562 L 0.777344 9.351562 Z M 0.777344 0.640625 " fill-opacity="1" fill-rule="nonzero"/></g></g></g></g></g></g></g></g></g><g mask="url(#07b46321ec)"><g transform="matrix(1, 0, 0, 1, 210, 452)"><g clip-path="url(#8d4d7b7402)"><g clip-path="url(#35e1c5dbc5)"><g clip-path="url(#efb1bc6beb)"><g transform="matrix(1, 0, 0, 1, 0, 1)"><g clip-path="url(#c2963eaea4)"><g clip-path="url(#9515e97731)"><g clip-path="url(#ef9c5c136a)"><path fill="#3ecfb2" d="M 0.9375 0.0195312 L 10.464844 0.0195312 L 10.464844 9.546875 L 0.9375 9.546875 Z M 0.9375 0.0195312 " fill-opacity="1" fill-rule="nonzero"/></g></g></g></g></g></g></g></g></g><g mask="url(#83baab963e)"><g transform="matrix(1, 0, 0, 1, 226, 384)"><g clip-path="url(#84a0bb8244)"><g clip-path="url(#501831aa24)"><g clip-path="url(#c6423c930c)"><g transform="matrix(1, 0, 0, 1, 0.000000000000028422, 0.000000000000056843)"><g clip-path="url(#a61465121f)"><g clip-path="url(#f3af2790ba)"><g clip-path="url(#acd6c7f8e3)"><path fill="#3ecfb2" d="M 0.929688 0.15625 L 11.269531 0.15625 L 11.269531 10.496094 L 0.929688 10.496094 Z M 0.929688 0.15625 " fill-opacity="1" fill-rule="nonzero"/></g></g></g></g></g></g></g></g></g><g clip-path="url(#e8f3bd36bd)"><g clip-path="url(#9e2daa2a36)"><g transform="matrix(1, 0, 0, 1, 161, 339)"><g clip-path="url(#98a370101c)"><g clip-path="url(#ece6840fbe)"><g clip-path="url(#5975e3e46e)"><path fill="#3ecfb2" d="M 0.265625 0.40625 L 15.601562 0.40625 L 15.601562 15.742188 L 0.265625 15.742188 Z M 0.265625 0.40625 " fill-opacity="1" fill-rule="nonzero"/></g></g></g></g></g></g><g clip-path="url(#fa6d5db238)"><g clip-path="url(#1673465127)"><g transform="matrix(1, 0, 0, 1, 144, 405)"><g clip-path="url(#4d59d7e343)"><g clip-path="url(#ccc569057b)"><g clip-path="url(#a2dc0c1c1f)"><path fill="#e8f8f5" d="M 0.703125 0.59375 L 21.3125 0.59375 L 21.3125 21.207031 L 0.703125 21.207031 Z M 0.703125 0.59375 " fill-opacity="1" fill-rule="nonzero"/></g></g></g></g></g></g><g mask="url(#f81db6a532)"><g transform="matrix(1, 0, 0, 1, 193, 417)"><g clip-path="url(#257b13ea04)"><g clip-path="url(#f560800a58)"><g clip-path="url(#b1be241ab9)"><g transform="matrix(1, 0, 0, 1, 0, 1)"><g clip-path="url(#363a29e678)"><g clip-path="url(#1b9e39c255)"><g clip-path="url(#dee6f0eeb8)"><path fill="#3ecfb2" d="M 0.238281 0.0703125 L 6.089844 0.0703125 L 6.089844 5.925781 L 0.238281 5.925781 Z M 0.238281 0.0703125 " fill-opacity="1" fill-rule="nonzero"/></g></g></g></g></g></g></g></g></g><path stroke-linecap="butt" transform="matrix(0.319987, 0.678313, -0.678313, 0.319987, 105.994064, 424.836503)" fill="none" stroke-linejoin="miter" d="M 0.000278743 0.498152 L 73.805136 0.497251 " stroke="#e8f8f5" stroke-width="1" stroke-opacity="1" stroke-miterlimit="4"/><path stroke-linecap="butt" transform="matrix(0.744312, 0.0921943, -0.0921943, 0.744312, 165.28211, 416.796215)" fill="none" stroke-linejoin="miter" d="M -0.00223369 0.499736 L 37.648143 0.501761 " stroke="#e8f8f5" stroke-width="1" stroke-opacity="1" stroke-miterlimit="4"/><path stroke-linecap="butt" transform="matrix(0.617287, 0.425978, -0.425978, 0.617287, 163.702656, 421.448255)" fill="none" stroke-linejoin="miter" d="M -0.000828564 0.502053 L 78.227752 0.503007 " stroke="#e8f8f5" stroke-width="1" stroke-opacity="1" stroke-miterlimit="4"/><path stroke-linecap="butt" transform="matrix(0.724832, -0.192663, 0.192663, 0.724832, 135.245651, 477.514076)" fill="none" stroke-linejoin="miter" d="M 0.00278815 0.498683 L 104.294467 0.497909 " stroke="#e8f8f5" stroke-width="1" stroke-opacity="1" stroke-miterlimit="4"/><path stroke-linecap="butt" transform="matrix(0.539275, -0.521232, 0.521232, 0.539275, 108.854552, 404.10084)" fill="none" stroke-linejoin="miter" d="M -0.00122444 0.999763 L 100.21989 1.000079 " stroke="#e8f8f5" stroke-width="2" stroke-opacity="1" stroke-miterlimit="4"/><path stroke-linecap="butt" transform="matrix(0.623384, 0.417003, -0.417003, 0.623384, 175.515463, 351.026897)" fill="none" stroke-linejoin="miter" d="M 0.00273978 0.50018 L 84.207493 0.499555 " stroke="#e8f8f5" stroke-width="1" stroke-opacity="1" stroke-miterlimit="4"/><path stroke-linecap="butt" transform="matrix(0.186993, -0.726315, 0.726315, 0.186993, 215.33699, 452.926677)" fill="none" stroke-linejoin="miter" d="M 0.000520865 0.498587 L 80.797198 0.499889 " stroke="#e8f8f5" stroke-width="1" stroke-opacity="1" stroke-miterlimit="4"/><path stroke-linecap="butt" transform="matrix(-0.74927, -0.0330726, 0.0330726, -0.74927, 144.667628, 416.195615)" fill="none" stroke-linejoin="miter" d="M 0.00203488 1.001288 L 42.402659 1.001347 " stroke="#e8f8f5" stroke-width="2" stroke-opacity="1" stroke-miterlimit="4"/><path stroke-linecap="butt" transform="matrix(-0.148746, 0.735102, -0.735102, -0.148746, 167.779039, 354.66636)" fill="none" stroke-linejoin="miter" d="M 0.00265647 0.501274 L 69.661852 0.498352 " stroke="#e8f8f5" stroke-width="1" stroke-opacity="1" stroke-miterlimit="4"/><g fill="#e8f8f5" fill-opacity="1"><g transform="translate(255.904679, 515.36313)"><g><path d="M 1.90625 0 L 18.28125 -44.4375 L 23.9375 -44.4375 L 40.25 0 L 34.59375 0 L 30.53125 -11.421875 L 11.625 -11.421875 L 7.484375 0 Z M 13.203125 -15.75 L 28.953125 -15.75 L 21.078125 -37.703125 Z M 13.203125 -15.75 "/></g></g></g><g fill="#e8f8f5" fill-opacity="1"><g transform="translate(318.108328, 515.36313)"><g><path d="M 24.1875 0.765625 C 19.832031 0.765625 16.078125 -0.195312 12.921875 -2.125 C 9.765625 -4.050781 7.316406 -6.738281 5.578125 -10.1875 C 3.847656 -13.632812 2.984375 -17.644531 2.984375 -22.21875 C 2.984375 -26.75 3.847656 -30.738281 5.578125 -34.1875 C 7.316406 -37.632812 9.765625 -40.332031 12.921875 -42.28125 C 16.078125 -44.226562 19.832031 -45.203125 24.1875 -45.203125 C 29.269531 -45.203125 33.40625 -43.984375 36.59375 -41.546875 C 39.789062 -39.117188 41.832031 -35.722656 42.71875 -31.359375 L 36.828125 -31.359375 C 36.148438 -34.109375 34.757812 -36.316406 32.65625 -37.984375 C 30.5625 -39.660156 27.738281 -40.5 24.1875 -40.5 C 21.007812 -40.5 18.234375 -39.769531 15.859375 -38.3125 C 13.492188 -36.851562 11.664062 -34.757812 10.375 -32.03125 C 9.082031 -29.300781 8.4375 -26.03125 8.4375 -22.21875 C 8.4375 -18.40625 9.082031 -15.132812 10.375 -12.40625 C 11.664062 -9.675781 13.492188 -7.582031 15.859375 -6.125 C 18.234375 -4.664062 21.007812 -3.9375 24.1875 -3.9375 C 27.738281 -3.9375 30.5625 -4.75 32.65625 -6.375 C 34.757812 -8.007812 36.148438 -10.179688 36.828125 -12.890625 L 42.71875 -12.890625 C 41.832031 -8.609375 39.789062 -5.257812 36.59375 -2.84375 C 33.40625 -0.4375 29.269531 0.765625 24.1875 0.765625 Z M 24.1875 0.765625 "/></g></g></g><g fill="#e8f8f5" fill-opacity="1"><g transform="translate(385.326273, 515.36313)"><g><path d="M 1.90625 0 L 18.28125 -44.4375 L 23.9375 -44.4375 L 40.25 0 L 34.59375 0 L 30.53125 -11.421875 L 11.625 -11.421875 L 7.484375 0 Z M 13.203125 -15.75 L 28.953125 -15.75 L 21.078125 -37.703125 Z M 13.203125 -15.75 "/></g></g></g><g fill="#e8f8f5" fill-opacity="1"><g transform="translate(450.069114, 515.36313)"><g><path d="M 4.703125 0 L 4.703125 -44.4375 L 18.34375 -44.4375 C 26.175781 -44.4375 31.941406 -42.445312 35.640625 -38.46875 C 39.347656 -34.488281 41.203125 -29.03125 41.203125 -22.09375 C 41.203125 -15.28125 39.347656 -9.894531 35.640625 -5.9375 C 31.941406 -1.976562 26.175781 0 18.34375 0 Z M 10.03125 -4.4375 L 18.21875 -4.4375 C 22.539062 -4.4375 25.976562 -5.144531 28.53125 -6.5625 C 31.09375 -7.988281 32.921875 -10.023438 34.015625 -12.671875 C 35.117188 -15.316406 35.671875 -18.457031 35.671875 -22.09375 C 35.671875 -25.8125 35.117188 -29.003906 34.015625 -31.671875 C 32.921875 -34.335938 31.09375 -36.390625 28.53125 -37.828125 C 25.976562 -39.273438 22.539062 -40 18.21875 -40 L 10.03125 -40 Z M 10.03125 -4.4375 "/></g></g></g><g fill="#e8f8f5" fill-opacity="1"><g transform="translate(516.84296, 515.36313)"><g><path d="M 4.703125 0 L 4.703125 -44.4375 L 32.1875 -44.4375 L 32.1875 -40.0625 L 10.03125 -40.0625 L 10.03125 -24.5625 L 30.28125 -24.5625 L 30.28125 -20.25 L 10.03125 -20.25 L 10.03125 -4.375 L 32.1875 -4.375 L 32.1875 0 Z M 4.703125 0 "/></g></g></g><g fill="#e8f8f5" fill-opacity="1"><g transform="translate(575.238953, 515.36313)"><g><path d="M 4.703125 0 L 4.703125 -44.4375 L 10.921875 -44.4375 L 26.921875 -13.453125 L 42.78125 -44.4375 L 49.078125 -44.4375 L 49.078125 0 L 43.734375 0 L 43.734375 -34.921875 L 28.890625 -6.34375 L 24.890625 -6.34375 L 10.03125 -34.859375 L 10.03125 0 Z M 4.703125 0 "/></g></g></g><g fill="#e8f8f5" fill-opacity="1"><g transform="translate(651.596585, 515.36313)"><g><path d="M 15.75 0 L 15.75 -16.890625 L 1.265625 -44.4375 L 7.296875 -44.4375 L 18.40625 -21.96875 L 29.515625 -44.4375 L 35.484375 -44.4375 L 21.078125 -16.890625 L 21.078125 0 Z M 15.75 0 "/></g></g></g></svg>